<svg id="Layer_1" data-name="Layer 1" xmlns="http://www.w3.org/2000/svg" width="266.02mm" height="243.89mm" viewBox="0 0 754.07 691.35"><defs><style>.cls-1{font-size:80.12px;}.cls-1,.cls-2{fill:#010101;font-family:DeValencia-Regular, De Valencia;}.cls-2{font-size:160.24px;}.cls-3,.cls-4{fill:none;stroke:#010101;stroke-linecap:round;stroke-miterlimit:10;}.cls-3{stroke-width:4px;}.cls-4{stroke-width:6px;}</style></defs><title>logo</title><text class="cls-1" transform="translate(264.71 168.27)">Pizza</text><text class="cls-1" transform="translate(351.88 252.84)">&amp;</text><text class="cls-2" transform="translate(0 395.27)">Prosecco</text><path class="cls-3" d="M662.3,66.15c17.8-28.93-20-40.06-20-40.06,13.35-35.61-24.48-37.84-24.48-37.84,4.45-35.6-31.16-31.15-31.16-31.15,4.45-37.84-33.38-28.93-33.38-28.93-4.45-37.84-37.84-24.48-37.84-24.48-11.12-37.84-42.28-17.81-42.28-17.81-17.8-31.16-44.51-11.13-44.51-11.13-15.58-28.93-44.51-4.45-44.51-4.45-20-28.93-44.51,0-44.51,0-26.71-24.48-44.51,8.91-44.51,8.91-28.93-17.81-42.28,15.57-42.28,15.57-35.61-17.8-40.06,20-40.06,20-37.84-11.12-35.61,26.71-35.61,26.71-37.84-4.45-34.5,32.27-34.5,32.27C104.81-24,115.94,9.4,115.94,9.4,82.55,13.85,93.68,45,93.68,45c-37.83,6.67-20,40.05-20,40.05" transform="translate(8 163.35)"/><path class="cls-3" d="M54,258" transform="translate(8 163.35)"/><path class="cls-3" d="M64.55,254s-23.67,28.64,12.82,36.54c0,0-17.75,27.66,16.76,34.57,0,0-13.8,30.62,19.73,32.59,0,0-13.81,32.59,22.68,28.64,0,0-11.84,31.61,25.64,27.66,0,0-5.92,34.57,29.58,25.68,0,0,1,38.51,32.54,19.75,0,0,4.94,37.53,35.51,16.79,0,0,12.82,32.59,37.47,9.88,0,0,16.77,33.58,38.46,4.93,0,0,18.74,34.57,38.46,2,0,0,27.61,29.63,38.46-3.95,0,0,27.61,23.7,37.47-7.9,0,0,29.59,23.7,36.49-11.85,0,0,33.53,19.75,33.53-17.78,0,0,32.54,16.79,31.56-20.74,0,0,34.51,14.81,30.57-23.71,0,0,35.5,4.94,28.6-26.66,0,0,35.5,2,22.68-30.62,0,0,35.5-1,18.74-33.58,0,0,33.53,1,14.79-31.6,0,0,30.57-4.94,11.83-30.62" transform="translate(8 163.35)"/><path class="cls-4" d="M702.68,258.46a343,343,0,0,1-231.22,250.8A343,343,0,0,1,41,283.67q-3.69-11.91-6.49-24.08" transform="translate(8 163.35)"/><path class="cls-4" d="M40.67,82.15A342.84,342.84,0,0,1,686.13,53.46q4.08,10.07,7.51,20.37" transform="translate(8 163.35)"/></svg>
