<svg id="Layer_1" data-name="Layer 1" xmlns="http://www.w3.org/2000/svg" width="203.05mm" height="167.22mm" viewBox="0 0 575.56 474"><defs><style>.cls-1,.cls-3{fill:none;stroke:#010101;stroke-linecap:round;stroke-miterlimit:10;}.cls-1{stroke-width:8px;}.cls-2{font-size:319.05px;fill:#010101;font-family:DeValencia-Regular, De Valencia;}.cls-3{stroke-width:5px;}</style></defs><title>nav_logo</title><path class="cls-1" d="M525.4,441.15a233,233,0,0,1-376.57-7.91" transform="translate(-59.65 -63)"/><path class="cls-1" d="M149.59,165.68a233.05,233.05,0,0,1,382.28,2.08" transform="translate(-59.65 -63)"/><text class="cls-2" transform="translate(0 366.86)">P&amp;P</text><path class="cls-3" d="M179,168s-8-36,30-27c0,0-2.5-36.5,34.5-23.5,0,0,5-36,37-16,0,0,10-35,39-10,0,0,18-33,40,0,0,0,25-28,40,8,0,0,30-20,37,16,0,0,34-18,34,21,0,0,38-6,29,28" transform="translate(-59.65 -63)"/><path class="cls-3" d="M181,433s-7.9,36,28.63,28c0,0-2,38,33.57,22,0,0,6.91,38,37.52,15,0,0,11.84,37,38.5,9,0,0,22.71,31,40.48,0,0,0,27.64,28,39.49-8,0,0,29.62,20,36.53-16,0,0,34.55,15,32.58-23,0,0,37.52,8,29.62-27" transform="translate(-59.65 -63)"/></svg>
