<svg xmlns="http://www.w3.org/2000/svg" width="274.55mm" height="83.54mm" viewBox="0 0 778.26 236.79"><defs><style>.cls-1{fill:none;stroke:#000;stroke-linecap:round;stroke-linejoin:round;stroke-width:3px;}</style></defs><title>prosecco</title><g id="Layer_3" data-name="Layer 3"><path class="cls-1" d="M68.81,171.29s-67.07,79.79,0,226.64H289.67s94.82,4.63,211.61-40.47c0,0,86.72-33.53,180.39-30.06,0,0,15-1.16,39.31,10.4l14.6-6.21h0l18.93-1.88,47.41-1.16s27.76-47.41,0-86.72l-46.25-1.16s-10.41-1.15-30.06-11.56c0,0-23.13,12.72-39.32,12.72s-123.73-5.78-186.17-31.22c0,0-105.23-48.57-231.27-46.26Z" transform="translate(-37.5 -162.77)"/></g></svg>
